# xmcd
#
# Track frame offsets: 
#        150
#        15562
#        33597
#        48987
#        64630
#        82972
#        95880
#        109997
#        128852
#        145087
#
# Disc length: 2150 seconds
#
# Revision: 0
# Processed by: cddbd v1.5.1PL2 Copyright (c) Steve Scherf et al.
# Submitted via: ExactAudioCopy v0.95b4
#
DISCID=8408640a
DTITLE=เสกสรร  เพชหนองคาย - ฝากแหวนแทนใจ
DYEAR=1900
DGENRE=Country
TTITLE0=ไอ้หนุ่มเครื่องไฟ
TTITLE1=กินเหล้าเผากลุ้ม
TTITLE2=ฝากแหวนแทนใจ
TTITLE3=สิ้นสวาท
TTITLE4=ฮักสาวสมปอง
TTITLE5=ขอกอดก่อนลา
TTITLE6=พี่ยอมรับผิด
TTITLE7=อาทิตย์นี้ที่เดิม
TTITLE8=คนพเนจร
TTITLE9=แอบรักแอบมอง
EXTD=
EXTT0=
EXTT1=
EXTT2=
EXTT3=
EXTT4=
EXTT5=
EXTT6=
EXTT7=
EXTT8=
EXTT9=
PLAYORDER=
